<svg width="83" height="16" viewBox="0 0 83 16" fill="none" xmlns="http://www.w3.org/2000/svg">
<path d="M81.2598 9C81.8121 9 82.2598 8.55228 82.2598 8C82.2598 7.44772 81.8121 7 81.2598 7L81.2598 9ZM1.12213 7.29289C0.731606 7.68341 0.731605 8.31658 1.12213 8.7071L7.48609 15.0711C7.87662 15.4616 8.50978 15.4616 8.90031 15.0711C9.29083 14.6805 9.29083 14.0474 8.90031 13.6568L3.24345 8L8.90031 2.34314C9.29083 1.95262 9.29083 1.31945 8.90031 0.928928C8.50978 0.538404 7.87662 0.538404 7.48609 0.928928L1.12213 7.29289ZM81.2598 7L1.82924 7L1.82924 9L81.2598 9L81.2598 7Z" fill="white"/>
</svg>
