<svg width="46" height="16" viewBox="0 0 46 16" fill="none" xmlns="http://www.w3.org/2000/svg">
<path d="M1 7C0.447715 7 -4.60876e-08 7.44772 0 8C4.60876e-08 8.55228 0.447715 9 1 9L1 7ZM45.7071 8.7071C46.0976 8.31658 46.0976 7.68341 45.7071 7.29289L39.3431 0.928929C38.9526 0.538405 38.3195 0.538405 37.9289 0.928929C37.5384 1.31945 37.5384 1.95262 37.9289 2.34314L43.5858 8L37.9289 13.6569C37.5384 14.0474 37.5384 14.6805 37.9289 15.0711C38.3195 15.4616 38.9526 15.4616 39.3431 15.0711L45.7071 8.7071ZM1 9L45 9L45 7L1 7L1 9Z" fill="white"/>
</svg>
