<svg width="82" height="16" viewBox="0 0 82 16" fill="none" xmlns="http://www.w3.org/2000/svg">
<path d="M1.00024 7C0.447959 7 0.000244141 7.44772 0.000244141 8C0.000244141 8.55228 0.447959 9 1.00024 9V7ZM81.671 8.70711C82.0615 8.31658 82.0615 7.68342 81.671 7.29289L75.307 0.928932C74.9165 0.538408 74.2833 0.538408 73.8928 0.928932C73.5023 1.31946 73.5023 1.95262 73.8928 2.34315L79.5496 8L73.8928 13.6569C73.5023 14.0474 73.5023 14.6805 73.8928 15.0711C74.2833 15.4616 74.9165 15.4616 75.307 15.0711L81.671 8.70711ZM1.00024 9H80.9639V7H1.00024V9Z" fill="#00060C"/>
</svg>
