<svg width="38" height="38" viewBox="0 0 38 38" fill="none" xmlns="http://www.w3.org/2000/svg">
<path d="M6.67331 28.5659H9.75507V34.8542L17.6151 28.5659H25.1639C26.8635 28.5659 28.2456 27.1837 28.2456 25.4841V13.1571C28.2456 11.4575 26.8635 10.0753 25.1639 10.0753H6.67331C4.97372 10.0753 3.59155 11.4575 3.59155 13.1571V25.4841C3.59155 27.1837 4.97372 28.5659 6.67331 28.5659Z" fill="#111F2A"/>
<path d="M31.3275 3.91187H12.8369C11.1373 3.91187 9.75513 5.29403 9.75513 6.99363H28.2457C29.9453 6.99363 31.3275 8.3758 31.3275 10.0754V22.4024C33.027 22.4024 34.4092 21.0203 34.4092 19.3207V6.99363C34.4092 5.29403 33.027 3.91187 31.3275 3.91187Z" fill="#111F2A"/>
</svg>
