<svg width="41" height="40" viewBox="0 0 41 40" fill="none" xmlns="http://www.w3.org/2000/svg">
<path d="M30.5846 16.2667H28.1082C28.1072 15.2818 27.7155 14.3376 27.0191 13.6412C26.3227 12.9448 25.3784 12.5531 24.3936 12.5521V10.0757C26.0349 10.0776 27.6085 10.7305 28.7691 11.8912C29.9297 13.0518 30.5826 14.6254 30.5846 16.2667Z" fill="#111F2A"/>
<path d="M35.5374 16.2666H33.061C33.0584 13.9686 32.1444 11.7655 30.5195 10.1406C28.8946 8.51574 26.6915 7.60172 24.3936 7.5991V5.12268C27.3481 5.12596 30.1807 6.30109 32.2698 8.39026C34.359 10.4794 35.5341 13.312 35.5374 16.2666Z" fill="#111F2A"/>
<path d="M26.0442 26.769L28.8178 23.9954C29.189 23.624 29.6611 23.3698 30.1754 23.2641C30.6898 23.1585 31.2239 23.2061 31.7114 23.401L35.0893 24.7532C35.5871 24.9524 36.0139 25.2962 36.3145 25.7402C36.6151 26.1843 36.7757 26.7082 36.7757 27.2444V33.3872C36.7766 33.7523 36.7029 34.1137 36.5593 34.4494C36.4156 34.785 36.205 35.0878 35.9402 35.3392C35.6755 35.5906 35.3622 35.7854 35.0196 35.9115C34.677 36.0377 34.3122 36.0926 33.9476 36.0729C10.2706 34.5994 5.48868 14.5454 4.60088 6.86601C4.55788 6.49058 4.59486 6.1103 4.70937 5.75019C4.82388 5.39007 5.01333 5.05828 5.26527 4.77663C5.51721 4.49499 5.82592 4.26987 6.1711 4.11609C6.51628 3.96231 6.8901 3.88335 7.26798 3.88441H13.3018C13.838 3.88439 14.3619 4.04504 14.806 4.34564C15.25 4.64624 15.5938 5.07299 15.793 5.57085L17.1439 8.94868C17.3389 9.43625 17.3865 9.97031 17.2808 10.4847C17.1752 10.999 16.9209 11.4711 16.5496 11.8424L13.776 14.616C13.776 14.616 15.3139 25.428 26.0442 26.769Z" fill="#111F2A"/>
</svg>
