<svg width="36" height="44" viewBox="0 0 36 44" fill="none" xmlns="http://www.w3.org/2000/svg">
<path fill-rule="evenodd" clip-rule="evenodd" d="M24.9165 1.09961C21.5484 1.6437 18.7155 4.13512 17.7218 7.42713L17.5807 7.89455L16.776 8.30686C16.3334 8.5336 15.6586 8.96108 15.2764 9.25679L14.5816 9.79432L14.0394 9.3433C9.73279 5.76026 2.32598 7.22409 1.16511 11.8877C0.983629 12.6168 0.941251 15.3721 1.09081 16.718C1.35968 19.1382 2.0876 21.2716 3.34903 23.3363C4.44917 25.1371 4.57247 25.8913 4.08517 27.8398C3.30841 30.946 3.08343 33.3417 3.32692 35.913C3.77264 40.6192 5.80684 43.9922 7.43155 42.7189C7.79882 42.431 7.85517 42.3043 8.34399 40.6659C9.41563 37.0736 11.2667 32.8037 11.4127 33.5868C12.0101 36.7897 12.5372 37.9613 13.6459 38.5502C15.5806 39.5778 17.4838 37.5697 17.8112 34.1553C17.8838 33.3987 17.9446 33.4249 18.4636 34.4369C19.3096 36.0866 20.2273 38.4957 20.9264 40.902C21.4125 42.5753 21.7383 43 22.5355 43C24.5388 43 26.3566 37.2672 25.9157 32.3396C25.7926 30.9633 25.6481 30.1277 25.2157 28.2918C24.6576 25.9219 24.7479 25.1035 25.7409 23.5285C26.3923 22.4954 27.0346 21.1253 27.3945 20.0017C27.6913 19.0749 27.6961 19.067 27.9758 19.013C33.1279 18.0199 36.29 12.2092 34.4918 7.03942C33.0986 3.03423 28.9338 0.450719 24.9165 1.09961ZM28.0221 2.64947C34.1342 4.28338 35.6598 12.4556 30.576 16.3298C26.2364 19.6368 19.8716 17.031 18.8376 11.5241C17.8118 6.06063 22.7897 1.25066 28.0221 2.64947ZM24.3971 4.01482C23.9225 4.42508 24.0153 4.67937 25.0134 5.70499C25.9601 6.67771 26.2217 6.79563 26.6095 6.42432C27.0667 5.98675 26.9705 5.74386 25.9184 4.67855C24.9613 3.70944 24.821 3.64827 24.3971 4.01482ZM28.4631 6.09655C27.8086 6.76906 28.3427 7.32553 29.6444 7.32742C30.8072 7.32914 31.3381 6.75126 30.7392 6.13591C30.4659 5.85505 28.7274 5.82496 28.4631 6.09655ZM20.9264 7.58097C20.3781 8.25053 20.8368 8.7227 22.0357 8.7227C23.1331 8.7227 23.4253 8.57157 23.4307 8.00148C23.4359 7.45436 23.1848 7.32865 22.0872 7.32865H21.1331L20.9264 7.58097ZM26.5856 8.1021C26.2742 8.24708 24.982 9.59931 24.8759 9.89124C24.7125 10.3409 25.0187 10.7656 25.5096 10.7702C25.933 10.7741 27.5034 9.15641 27.5034 8.7163C27.5034 8.44045 27.2758 8.06668 27.1078 8.06668C27.0692 8.06668 26.9898 8.04954 26.9313 8.02863C26.8728 8.0078 26.7173 8.04084 26.5856 8.1021ZM9.907 8.87744C11.1439 9.13977 12.5054 9.80399 13.3081 10.5367L13.6569 10.8551L12.9635 11.5377C11.753 12.7292 10.5981 13.406 9.4861 13.5755C8.60017 13.7105 8.22994 14.2012 8.61812 14.7262C9.37749 15.7532 12.2509 14.3217 14.7742 11.6594C15.7503 10.6294 16.679 9.84737 17.1433 9.66434C17.2437 9.62473 17.2724 9.75463 17.3167 10.4488C17.6194 15.1946 21.0682 18.8675 25.5272 19.1927C25.9118 19.2207 26.2265 19.258 26.2265 19.2754C26.2265 19.625 25.2187 21.7699 24.5324 22.881C23.4163 24.688 23.2676 25.9208 23.8612 28.4444C25.0938 33.6843 24.7266 38.5774 22.91 41.1202C22.5509 41.6228 22.53 41.6218 22.399 41.0934C21.4619 37.3156 19.4855 32.8925 17.8229 30.8524C14.2191 26.4305 9.91363 30.1992 7.03683 40.2939C6.87618 40.8577 6.72574 41.3743 6.70252 41.4419C6.58815 41.7753 5.73382 40.348 5.35665 39.1937C4.32794 36.0447 4.35914 31.9677 5.44212 28.0344C5.97555 26.0974 5.73605 24.6194 4.583 22.7333C2.99644 20.1379 2.44753 18.1643 2.38408 14.827C2.3425 12.6378 2.38991 12.2223 2.77107 11.4386C3.7167 9.49427 7.09612 8.28128 9.907 8.87744ZM31.2697 8.8521C31.0401 9.01726 30.2966 10.5324 30.2966 10.835C30.2966 11.3538 30.8745 11.6779 31.2949 11.3949C31.5463 11.2256 32.2918 9.71625 32.2918 9.37651C32.2918 8.8576 31.6906 8.5491 31.2697 8.8521ZM20.2773 10.3181C19.8627 10.744 19.9707 11.0199 20.9433 12.0192C21.9022 13.0045 22.0978 13.0899 22.527 12.7105C22.9794 12.3106 22.8717 12.0339 21.866 11.0119C20.8829 10.0129 20.6663 9.91831 20.2773 10.3181ZM28.4176 12.4502C27.7779 13.1073 29.2825 14.7142 29.9969 14.1368C30.424 13.7916 30.3097 13.3328 29.6341 12.6794C29.1068 12.1694 28.7552 12.1032 28.4176 12.4502ZM24.5106 13.0039C24.1014 13.245 24.0238 13.7652 24.3474 14.0976C24.8996 14.6651 26.8649 14.278 26.8649 13.6019C26.8649 13.009 25.2137 12.5896 24.5106 13.0039ZM15.4996 30.6958C15.7591 30.8291 16.1281 31.1024 16.3197 31.3032L16.6682 31.6682L16.5785 32.8444C16.0781 39.4088 13.1948 38.8335 12.6284 32.0562L12.5876 31.5678L12.9485 31.2274C13.8076 30.4169 14.6252 30.2465 15.4996 30.6958Z" fill="white" stroke="white" stroke-width="0.5"/>
</svg>
