<svg width="44" height="44" viewBox="0 0 44 44" fill="none" xmlns="http://www.w3.org/2000/svg">
<path fill-rule="evenodd" clip-rule="evenodd" d="M32.068 2.29536C30.4662 3.89706 30.4822 3.8388 31.3881 4.76972C31.7266 5.1175 32.0036 5.43664 32.0036 5.47891C32.0036 5.52109 30.997 6.56164 29.7668 7.79127L27.5301 10.0269H27.1105C25.9391 10.0269 24.4003 10.4916 23.441 11.1349C23.1384 11.3379 22.8644 11.504 22.8322 11.504C22.8 11.504 21.0183 9.74995 18.8727 7.60606C15.2401 3.97642 14.9521 3.70807 14.6895 3.70807C14.3737 3.70807 9.86993 8.07981 9.34202 8.89871C8.64818 9.97505 8.59533 11.4636 9.20727 12.694C9.30977 12.9 10.8855 14.5406 13.4406 17.1015L17.5107 21.1809L16.9997 21.7131C16.2598 22.4836 16.0505 22.9841 16.0459 23.9938L16.0423 24.7895L14.3484 26.4967C12.3321 28.5286 12.1366 28.8996 12.5161 29.9752L12.6416 30.331L6.85855 36.1197C2.71724 40.265 1.05891 41.9766 1.01698 42.1488C0.903154 42.6168 1.38207 43.0987 1.84548 42.9824C2.00846 42.9416 3.84815 41.1609 7.85693 37.1639C11.034 33.9961 13.6417 31.3964 13.6518 31.3868C13.6619 31.3771 13.8497 31.4233 14.0692 31.4894C15.1866 31.8257 15.4624 31.677 17.5338 29.621L19.2715 27.8962L19.7287 27.9533C20.6773 28.0718 21.4884 27.767 22.3012 26.9865L22.8191 26.4893L26.8984 30.5594C29.4746 33.1297 31.0996 34.6901 31.3085 34.7941C32.5791 35.4272 34.1315 35.3377 35.2339 34.5679C36.0974 33.9649 40.2919 29.6049 40.2919 29.3104C40.2919 29.0478 40.0232 28.7596 36.3939 25.1273C34.25 22.9817 32.4959 21.2002 32.4959 21.1683C32.4959 21.1366 32.6578 20.8601 32.8557 20.554C33.5389 19.4974 33.8505 18.523 33.9431 17.154L33.9967 16.3621L36.2388 14.121L38.481 11.8799L39.1714 12.5536C40.1687 13.5271 40.0903 13.5464 41.7046 11.932C42.8772 10.7595 43 10.6098 43 10.3531C43 9.91465 34.0853 1 33.6469 1C33.3902 1 33.2405 1.12277 32.068 2.29536ZM37.5016 6.53908L41.3166 10.3548L40.7219 10.9495L40.1272 11.5443L36.2922 7.70929L32.4572 3.87433L33.0283 3.29883C33.3424 2.98231 33.619 2.72332 33.6429 2.72332C33.6669 2.72332 35.4033 4.4404 37.5016 6.53908ZM18.2372 8.93925C20.1669 10.8685 21.7457 12.4959 21.7457 12.5554C21.7457 12.6151 21.6575 12.7814 21.5499 12.9251C20.656 14.1179 20.1528 16.0429 20.343 17.543L20.4252 18.1922L19.4441 19.1765L18.4631 20.1609L14.5186 16.2222C9.89332 11.6039 9.83489 11.5191 10.2986 10.0995C10.4262 9.70859 14.4448 5.43139 14.6844 5.43139C14.7087 5.43139 16.3074 7.00995 18.2372 8.93925ZM35.306 8.69282C36.4685 9.85466 37.4197 10.8422 37.4197 10.8873C37.4197 10.9964 33.7928 14.6231 33.6865 14.6202C33.641 14.619 33.4933 14.3709 33.3583 14.0688C32.6604 12.5079 31.1778 11.0521 29.7703 10.546C29.5543 10.4683 29.3775 10.3662 29.3775 10.3191C29.3775 10.2093 33.0005 6.58027 33.1102 6.58027C33.1553 6.58027 34.1435 7.53089 35.306 8.69282ZM13.8229 10.3104C13.3397 10.7935 13.4182 10.9217 15.4473 12.9654C17.5819 15.1153 17.7591 15.2276 18.2785 14.76C18.7446 14.3405 18.6534 14.201 16.5123 12.0599C14.3632 9.91079 14.2779 9.85532 13.8229 10.3104ZM27.9004 11.5094C32.5038 12.2529 34.1856 17.9918 30.6668 20.9496C27.0126 24.0212 21.523 21.3129 21.7657 16.5581C21.9285 13.3683 24.7964 11.008 27.9004 11.5094ZM26.5464 13.1563C24.8069 13.3984 23.3869 15.0531 23.3869 16.8381C23.3869 20.1869 27.3958 21.8563 29.7687 19.4957C32.3366 16.9413 30.1573 12.6539 26.5464 13.1563ZM27.9004 14.6429C29.1942 15.036 29.8643 16.6502 29.2476 17.888C28.1823 20.0257 24.9932 19.4211 24.8025 17.0452C24.6659 15.3431 26.2253 14.1338 27.9004 14.6429ZM21.1964 20.2336C21.6913 21.1808 22.8232 22.3108 23.7756 22.8084C24.3214 23.0935 24.463 22.8676 22.5458 24.7715C20.2755 27.0262 19.9821 27.0867 18.489 25.6079C16.872 24.0065 16.9118 23.7831 19.2268 21.4542C21.1342 19.5354 20.9056 19.677 21.1964 20.2336ZM20.884 22.1606C20.3225 22.5072 19.2017 23.7903 19.2017 24.0867C19.2017 24.6654 19.8422 24.987 20.2913 24.6338C20.6516 24.3504 21.6981 23.3085 21.8477 23.0842C22.2718 22.4485 21.5454 21.7525 20.884 22.1606ZM35.0808 25.7828L38.6086 29.3114L36.5674 31.3539C34.2013 33.7215 34.1098 33.785 33.0704 33.7823C32.0526 33.7797 32.1428 33.853 27.7777 29.4814L23.839 25.5369L24.8235 24.5567L25.8078 23.5766L26.4643 23.6524C27.9784 23.8273 29.9242 23.316 31.0598 22.4449C31.4528 22.1435 31.39 22.0913 35.0808 25.7828ZM29.2371 25.7214C28.7556 26.2475 28.8182 26.3459 31.0373 28.5526C33.078 30.5818 33.2063 30.6604 33.6895 30.177C34.1424 29.7243 34.0874 29.6396 31.9443 27.4897C29.8049 25.3435 29.6661 25.2528 29.2371 25.7214ZM17.438 26.6043L18.0087 27.1794L16.6152 28.5793C14.8087 30.3942 14.6092 30.4903 14.0265 29.8266C13.5673 29.3035 13.6402 29.1717 15.321 27.489C16.123 26.6861 16.799 26.0292 16.8232 26.0292C16.8475 26.0292 17.1241 26.288 17.438 26.6043Z" fill="white" stroke="white" stroke-width="0.5"/>
</svg>
