<svg width="44" height="44" viewBox="0 0 44 44" fill="none" xmlns="http://www.w3.org/2000/svg">
<path fill-rule="evenodd" clip-rule="evenodd" d="M2.88632 1.0678C2.26881 1.31547 1.56099 4.27211 1.72643 5.91296C1.9344 7.97553 1.81034 7.81365 7.70873 13.7139L12.7642 18.7709L14.1189 19.0341L15.4736 19.2973L16.5615 20.3792C17.1598 20.9743 17.6494 21.4976 17.6494 21.5422C17.6494 21.5868 16.0442 23.2312 14.0824 25.1964C10.2252 29.0602 10.2069 29.0825 10.0068 30.1643C9.89781 30.7542 9.96916 31.3244 10.237 32.0021L10.4438 32.5256L9.04835 33.9209L7.65282 35.3162L7.12957 35.0586C5.03483 34.0277 2.49911 34.8268 1.48373 36.8379C-0.349424 40.4689 3.36088 44.3057 7.02612 42.5692C8.12336 42.0494 8.59489 41.3976 8.24012 40.8912C7.93682 40.4583 7.59674 40.5037 6.78071 41.0864C4.50066 42.7141 1.47921 40.2027 2.64764 37.651C3.45514 35.8875 5.5057 35.4497 7.08917 36.7027C7.7731 37.2439 7.73944 37.2626 9.81882 35.1954L11.4713 33.5526L11.9946 33.7593C12.6721 34.0269 13.2424 34.0983 13.8323 33.9892C14.9057 33.7908 14.9621 33.7452 18.5138 30.2015C20.3213 28.3981 21.8355 26.9225 21.8787 26.9225C21.9218 26.9225 25.4862 30.4446 29.7995 34.7494C38.6592 43.5916 37.9339 42.9633 39.284 42.9669C41.0335 42.9717 42.2379 41.7691 42.2392 40.0162C42.2401 38.5792 42.9145 39.3633 33.9977 30.4325L26.1503 22.5727L29.8115 18.8986C33.7577 14.9384 33.8004 14.8867 33.9936 13.8383C34.104 13.2398 34.0336 12.6719 33.7649 11.9918L33.5581 11.4683L34.9535 10.0731L36.349 8.67775L36.8723 8.93535C38.5562 9.76407 40.4558 9.47068 41.7437 8.18298C44.3125 5.61456 42.703 1.28239 39.0787 1.01034C37.2476 0.872914 35.1338 2.20626 35.7618 3.1027C36.0648 3.53533 36.4054 3.4901 37.2189 2.90905C39.5616 1.23601 42.5791 3.84597 41.3018 6.44033C40.4767 8.11599 38.4492 8.51627 36.9266 7.3041C36.2274 6.74751 36.2714 6.72387 34.3383 8.69802C33.4099 9.64619 32.6125 10.422 32.5662 10.422C32.52 10.422 32.2576 10.3333 31.983 10.2249C31.3265 9.96577 30.7532 9.8969 30.1608 10.0061C29.1065 10.2003 29.0795 10.2228 24.8726 14.4148C22.7266 16.5532 20.9349 18.3028 20.8911 18.3028C20.8473 18.3028 16.9129 14.4055 12.148 9.64209C3.04347 0.540441 3.3934 0.864377 2.88632 1.0678ZM11.7376 11.2016L19.9064 19.3694L19.3129 19.9629L18.7194 20.5563L17.4249 19.2773L16.1305 17.9984L14.7641 17.7307L13.3977 17.463L8.59727 12.6495C3.46967 7.50793 3.53109 7.57878 3.23617 6.47078C2.99691 5.57212 3.20349 3.03366 3.51582 3.03366C3.54496 3.03366 7.24476 6.70918 11.7376 11.2016ZM31.5986 11.5681C33.0291 12.304 33.0154 13.6942 31.5633 15.1752L30.7102 16.0453L29.3318 14.6672L27.9535 13.289L28.8234 12.4363C29.9767 11.3058 30.6682 11.0895 31.5986 11.5681ZM28.3426 15.6544C29.0543 16.3649 29.6367 16.9846 29.6367 17.0312C29.6367 17.0779 29.3223 17.4288 28.938 17.811L28.2394 18.5059L26.866 17.1327L25.4925 15.7594L26.1875 15.0609C26.5698 14.6767 26.9199 14.3624 26.9656 14.3624C27.0111 14.3624 27.6308 14.9438 28.3426 15.6544ZM25.8795 18.1171C26.5912 18.8277 27.1735 19.4467 27.1735 19.4925C27.1735 19.5999 19.6047 27.1688 19.4973 27.1688C19.3905 27.1688 16.8283 24.6089 16.8283 24.5021C16.8283 24.3947 24.3965 16.8252 24.5039 16.8252C24.5487 16.8252 25.1677 17.4065 25.8795 18.1171ZM30.4162 28.8102L35.5879 33.9815L34.4812 35.0903C33.8727 35.7 33.3371 36.1989 33.2912 36.1989C33.2453 36.1989 30.8805 33.8718 28.036 31.0275L22.8644 25.8562L23.971 24.7475C24.5796 24.1377 25.1152 23.6388 25.1611 23.6388C25.207 23.6388 27.5718 25.966 30.4162 28.8102ZM17.1563 26.881L18.5088 28.2351L17.814 28.9333C17.432 29.3174 17.082 29.6315 17.0363 29.6315C16.9289 29.6315 14.3652 27.0735 14.3652 26.9662C14.3652 26.8835 15.6799 25.5269 15.7601 25.5269C15.7842 25.5269 16.4125 26.1363 17.1563 26.881ZM14.6933 29.3439L16.0458 30.6981L15.267 31.4805C14.3501 32.4019 14.023 32.5869 13.3103 32.5869C11.9381 32.5869 11.0717 31.4559 11.4492 30.1575C11.5713 29.7375 13.0563 27.9897 13.2909 27.9897C13.3184 27.9897 13.9494 28.5991 14.6933 29.3439ZM37.1675 35.5603C37.819 36.2059 37.8683 36.0573 36.5743 37.3484L35.4657 38.4546L34.8716 37.8605L34.2775 37.2665L35.3837 36.1581C36.6757 34.8638 36.5179 34.9166 37.1675 35.5603ZM39.7081 38.1076C40.8022 39.2129 40.9143 39.4054 40.87 40.1012C40.8029 41.1547 39.8701 41.812 38.8452 41.5281C38.4659 41.423 36.5335 39.6856 36.5335 39.4497C36.5335 39.363 38.6657 37.184 38.7504 37.184C38.7744 37.184 39.2053 37.5997 39.7081 38.1076Z" fill="white" stroke="white" stroke-width="0.5"/>
</svg>
