<svg width="38" height="44" viewBox="0 0 38 44" fill="none" xmlns="http://www.w3.org/2000/svg">
<path fill-rule="evenodd" clip-rule="evenodd" d="M26.3233 1.09961C22.7571 1.6437 19.7575 4.13512 18.7054 7.42713L18.556 7.89455L17.704 8.30686C17.2353 8.5336 16.5209 8.96108 16.1162 9.25679L15.3805 9.79432L14.8064 9.3433C10.2465 5.76026 2.40398 7.22409 1.17482 11.8877C0.982666 12.6168 0.937796 15.3721 1.09615 16.718C1.38084 19.1382 2.15157 21.2716 3.48721 23.3363C4.65206 25.1371 4.78261 25.8913 4.26665 27.8398C3.44419 30.946 3.20598 33.3417 3.4638 35.913C3.93574 40.6192 6.0896 43.9922 7.80988 42.7189C8.19875 42.431 8.25841 42.3043 8.77598 40.6659C9.91067 37.0736 11.8706 32.8037 12.0252 33.5868C12.6606 36.8043 13.2108 37.9587 14.391 38.5508C16.4357 39.5765 18.4539 37.5645 18.8001 34.1553C18.877 33.3987 18.9413 33.4249 19.4909 34.4369C20.3886 36.0902 21.4382 38.7 22.1387 41.0209C22.6027 42.558 22.9743 43 23.8023 43C25.2272 43 26.7309 40.2431 27.2405 36.6963C27.6443 33.8849 27.461 31.43 26.5996 28.1164C26.0478 25.9936 26.1681 25.0687 27.1962 23.5285C27.8859 22.4954 28.5661 21.1253 28.9472 20.0017C29.2614 19.0749 29.2664 19.067 29.5626 19.013C35.0177 18.0199 38.3659 12.2092 36.4619 7.03942C34.9867 3.03423 30.5769 0.450719 26.3233 1.09961ZM29.6117 2.64947C36.0833 4.28338 37.6986 12.4556 32.3157 16.3298C27.7209 19.6368 20.9817 17.031 19.8869 11.5241C18.8007 6.06063 24.0714 1.25066 29.6117 2.64947ZM24.0768 5.32261C22.9874 5.65086 22.3995 6.8017 22.7426 7.93416C22.8193 8.1873 23.0761 8.50228 23.7703 9.19422L24.6956 10.1168L23.7605 11.0454C22.6205 12.1777 22.3849 12.8091 22.7697 13.7026C23.4819 15.3569 25.088 15.4447 26.7018 13.9174C27.7805 12.8966 27.5873 12.9029 28.5571 13.8571C29.9641 15.2415 31.3382 15.3868 32.2349 14.246C33.0578 13.1989 32.8511 12.2869 31.4895 10.9573L30.6287 10.1168L31.4848 9.27622C32.7505 8.03346 33.0042 7.21032 32.4194 6.24473C31.5529 4.81435 30.1026 4.86495 28.5571 6.37954C27.5862 7.33103 27.7741 7.33783 26.701 6.31247C25.5647 5.22683 25.0451 5.03084 24.0768 5.32261ZM26.1471 7.73866C27.2579 8.80019 27.3721 8.88671 27.6629 8.88671C27.9533 8.88671 28.0698 8.79888 29.1862 7.73866C30.4324 6.55511 30.5117 6.50804 30.9154 6.71059C31.5648 7.03647 31.4321 7.34579 30.0653 8.69269C28.5323 10.2033 28.5295 10.0393 30.1157 11.5928C31.4571 12.9065 31.5853 13.2692 30.8097 13.5554C30.4673 13.6817 30.3738 13.6194 29.1402 12.442C27.5995 10.9716 27.7359 10.9715 26.1961 12.4448C24.9617 13.626 24.8106 13.7185 24.4293 13.5272C23.7728 13.1977 23.9022 12.8782 25.2108 11.5964C26.7845 10.055 26.7867 10.1482 25.1389 8.55992C23.9253 7.39007 23.7589 6.94004 24.4415 6.6732C24.8308 6.52092 24.9524 6.59685 26.1471 7.73866ZM10.4309 8.87744C11.7406 9.13977 13.1822 9.80399 14.0321 10.5367L14.4014 10.8551L13.6672 11.5377C12.3856 12.7292 11.1626 13.406 9.98528 13.5755C9.04723 13.7105 8.65523 14.2012 9.06625 14.7262C9.87028 15.7532 12.9128 14.3217 15.5844 11.6594C16.618 10.6294 17.6013 9.84737 18.0929 9.66434C18.1992 9.62473 18.2296 9.75463 18.2765 10.4488C18.597 15.1946 22.2486 18.8675 26.97 19.1927C27.3772 19.2207 27.7104 19.258 27.7104 19.2754C27.7104 19.623 26.6166 21.8251 25.9216 22.8767C25.4523 23.5868 24.9258 24.782 24.923 25.1438C24.9224 25.2227 24.8934 25.287 24.8585 25.2867C24.7684 25.2857 21.0273 24.2415 20.9938 24.208C20.9785 24.1928 20.6697 23.4608 20.3074 22.5815C19.4864 20.5887 19.197 20.2919 18.5534 20.7831C18.1881 21.062 18.2504 21.3622 19.1011 23.4247C19.9475 25.4763 19.8967 25.4091 20.7602 25.62C21.3369 25.7608 21.3305 25.7837 20.4855 26.5994C19.6917 27.3657 19.5621 27.7123 19.9342 28.0734C20.392 28.5177 20.6887 28.3842 21.9206 27.1791C22.9726 26.1502 22.8332 26.1967 23.9431 26.5031L24.7811 26.7344L25.1432 28.1634C26.5163 33.5813 26.1553 38.5337 24.1989 41.1202C23.8186 41.6228 23.7965 41.6218 23.6577 41.0934C22.6656 37.3156 20.5729 32.8925 18.8125 30.8524C14.9967 26.4305 10.438 30.1992 7.39193 40.2939C7.22183 40.8577 7.06255 41.3743 7.03796 41.4419C6.89431 41.8374 5.82883 39.9938 5.45034 38.6948C4.79934 36.4607 4.56806 31.4814 5.09164 30.9721C5.18949 30.8768 6.6495 30.0435 6.71846 30.0435C6.73798 30.0435 6.75403 30.3404 6.75403 30.7032C6.75403 31.4859 6.93968 31.7656 7.45911 31.7656C8.05713 31.7656 8.1429 31.5964 8.19056 30.3233L8.23281 29.194L9.2017 28.6472C10.4357 27.951 10.6759 27.4935 10.0362 27.0587C9.68978 26.8232 9.44464 26.9134 7.49545 27.9934C6.43724 28.5798 5.53637 29.0595 5.49344 29.0595C5.4506 29.0595 5.52842 28.6628 5.6665 28.1779C6.27111 26.0542 6.04371 24.6656 4.76867 22.6968C3.11785 20.1476 2.53234 18.1467 2.4655 14.827C2.42147 12.6378 2.47167 12.2223 2.87525 11.4386C3.8765 9.49427 7.45472 8.28128 10.4309 8.87744ZM10.6995 16.5541C6.90351 17.5667 6.34521 22.6044 9.83834 24.3241C12.8246 25.7944 16.3294 23.5827 16.109 20.3671C15.9295 17.7469 13.266 15.8694 10.6995 16.5541ZM13.0461 18.1121C13.6926 18.4279 13.717 18.5267 13.164 18.5902C11.6573 18.7633 10.1407 20.1789 9.75857 21.7687C9.57968 22.5127 9.46484 22.4849 9.12193 21.6146C8.19698 19.2672 10.7484 16.9898 13.0461 18.1121ZM14.4431 19.9571C14.6404 19.9571 14.7138 20.494 14.5995 21.1004C14.3521 22.4123 13.2165 23.3446 11.8528 23.3554C11.1085 23.3613 11.1048 23.3577 11.1108 22.6354C11.1236 21.1185 12.6407 19.7194 14.0528 19.9222C14.1864 19.9414 14.362 19.9571 14.4431 19.9571ZM16.2805 30.6551C16.5239 30.7651 16.9168 31.0309 17.1535 31.2458L17.584 31.6366L17.5282 32.5006C17.3333 35.5207 16.5495 37.4238 15.5008 37.4238C14.4432 37.4238 13.6052 35.3695 13.3129 32.06L13.2701 31.5754L13.6623 31.2259C14.5408 30.4431 15.3979 30.2563 16.2805 30.6551Z" fill="white" stroke="white" stroke-width="0.5"/>
</svg>
