<svg width="43" height="44" viewBox="0 0 43 44" fill="none" xmlns="http://www.w3.org/2000/svg">
<path fill-rule="evenodd" clip-rule="evenodd" d="M8.90607 1.04954C4.96695 1.40398 1.98054 3.43746 1.19034 6.30353C0.975381 7.08309 0.930254 10.6916 1.11817 12.0741C1.52203 15.0451 2.45714 17.6429 3.90021 19.8022C5.22142 21.779 5.4108 22.9476 4.7941 25.3164C3.91797 28.6814 3.62847 31.1733 3.81028 33.7855C4.21512 39.6034 6.42729 43.8663 8.51345 42.8487C9.11166 42.5569 9.12771 42.5252 9.84411 40.2291C12.4682 31.8192 15.9416 27.2468 18.7215 28.5428C21.043 29.6251 23.7911 34.4803 25.6844 40.8447C26.18 42.511 26.4705 42.8886 27.3361 42.9919C28.8747 43.1755 30.5815 40.2166 31.2631 36.1841C31.8268 32.8497 31.6328 29.6787 30.618 25.6418C29.9146 22.8438 30.0362 21.9635 31.4199 19.8311C32.8527 17.6232 33.7719 15.1511 34.1684 12.4394C34.4042 10.8262 34.3829 7.16205 34.1326 6.2908C32.6001 0.956946 24.123 -0.757472 18.3392 3.09673L17.6718 3.54146L17.0591 3.12669C14.7231 1.54525 11.7671 0.792203 8.90607 1.04954ZM12.1643 2.59207C13.6305 2.89693 15.6793 3.76129 16.3761 4.36896L16.6444 4.6029L15.8689 5.36382C14.359 6.84537 12.8055 7.81159 11.6858 7.96549C10.4558 8.13451 10.3393 9.36528 11.5533 9.36528C13.082 9.36528 14.8928 8.2816 17.2298 5.96846C19.0223 4.19412 19.8014 3.66459 21.5164 3.05478C25.6003 1.60262 30.657 2.73531 32.2818 5.46627C32.8004 6.33792 32.9112 6.83741 32.9558 8.50537C33.0687 12.7314 32.2001 16.1228 30.2444 19.0923C28.6745 21.476 28.4758 22.9186 29.2836 26.0695C30.8224 32.0726 30.3178 37.9501 27.9953 41.0753C27.4947 41.749 27.4047 41.7581 27.2351 41.1525C25.7013 35.675 23.3346 30.819 21.1244 28.6141C16.6483 24.149 11.7297 28.8164 8.17093 40.9063C7.9163 41.7711 7.87305 41.7797 7.3422 41.0705C4.99896 37.9398 4.51764 32.0598 6.09397 25.8232C6.8265 22.9251 6.62042 21.3831 5.22012 19.2847C3.19269 16.2464 2.40053 13.4209 2.39312 9.20111C2.38831 6.44151 2.59749 5.74125 3.77868 4.56333C5.48175 2.86509 9.2345 1.98292 12.1643 2.59207ZM25.5707 4.01025C25.3689 4.21349 25.3398 4.31536 25.2888 4.99658C25.0788 7.80059 23.2496 10.104 21.2331 10.104C20.0475 10.104 20.2492 11.4126 21.4523 11.5258C23.5376 11.722 25.3052 14.2183 25.3178 16.985C25.32 17.4762 25.6859 17.8641 26.0761 17.7886C26.5248 17.7019 26.6718 17.4431 26.728 16.6411C26.9198 13.9023 28.5617 11.7125 30.5632 11.526C31.7729 11.4133 31.9733 10.104 30.781 10.104C28.7523 10.104 26.9255 7.78261 26.7273 4.95291C26.6521 3.87801 26.1267 3.44986 25.5707 4.01025ZM26.4584 8.7155C26.7881 9.30077 27.52 10.133 27.9994 10.4678C28.3004 10.6781 28.4431 10.9249 28.2636 10.9249C27.9784 10.9249 26.5877 12.5257 26.249 13.2438C26.0497 13.6662 25.9792 13.6355 25.6045 12.9634C25.2455 12.3195 24.4111 11.3604 23.9719 11.0869C23.5974 10.8536 23.6139 10.7796 24.1292 10.3785C24.6804 9.94964 25.3015 9.20169 25.6942 8.49387C26.0346 7.88062 25.9789 7.86445 26.4584 8.7155ZM20.031 17.2938C19.7869 17.5008 19.7804 17.5246 19.7804 18.2129V18.9195L18.9412 19.7652L18.102 20.6109H17.4789C16.7721 20.6109 16.4985 20.705 16.3682 20.9931C16.0837 21.6226 16.4885 22.0063 17.4372 22.0063H18.1203L18.9504 22.8563L19.7804 23.7063V24.4016C19.7804 25.0187 19.801 25.1156 19.9637 25.2632C20.5998 25.8402 21.1651 25.382 21.1651 24.2897V23.6918L21.9986 22.8491L22.8321 22.0063H23.5093C24.3173 22.0063 24.5863 21.8321 24.5863 21.3086C24.5863 20.7851 24.3173 20.6109 23.5093 20.6109H22.8321L21.9986 19.7681L21.1651 18.9254V18.3275C21.1651 17.6461 21.0219 17.28 20.7079 17.1598C20.4009 17.0422 20.3055 17.061 20.031 17.2938ZM21.0251 20.7569C21.2814 21.0178 21.491 21.2661 21.491 21.3086C21.491 21.4129 20.5807 22.3347 20.4777 22.3347C20.3707 22.3347 19.4546 21.4203 19.4546 21.3135C19.4546 21.2028 20.3634 20.2825 20.4728 20.2825C20.5203 20.2825 20.7689 20.496 21.0251 20.7569ZM37.3304 24.342C37.1502 24.5236 37.1305 24.6108 37.1305 25.2258V25.9083L36.2941 26.7482L35.4578 27.5881H34.8646C33.7735 27.5881 33.3157 28.1602 33.8958 28.7988C34.0444 28.9625 34.142 28.9835 34.7535 28.9835H35.4435L36.287 29.8199L37.1305 30.6564V31.3448C37.1305 31.9963 37.1432 32.0462 37.3685 32.2732C37.9488 32.8579 38.5152 32.3992 38.5152 31.3448V30.6564L39.3587 29.8199L40.2021 28.9835H40.8922C41.8141 28.9835 42.2046 28.6006 41.8959 27.9991C41.7291 27.674 41.4941 27.5881 40.7717 27.5881H40.1878L39.3515 26.7482L38.5152 25.9083V25.2258C38.5152 24.2135 37.9077 23.7603 37.3304 24.342ZM38.3752 27.7341C38.6314 27.995 38.841 28.2433 38.841 28.2858C38.841 28.3901 37.9308 29.3118 37.8277 29.3118C37.7208 29.3118 36.8046 28.3975 36.8046 28.2907C36.8046 28.18 37.7134 27.2597 37.8228 27.2597C37.8704 27.2597 38.119 27.4732 38.3752 27.7341Z" fill="white" stroke="white" stroke-width="0.5"/>
</svg>
