<svg width="35" height="44" viewBox="0 0 35 44" fill="none" xmlns="http://www.w3.org/2000/svg">
<path fill-rule="evenodd" clip-rule="evenodd" d="M8.29311 1.10803C4.72551 1.5938 2.13689 3.33542 1.27073 5.83262C1.03351 6.51647 1.03137 6.53953 1.003 8.73115C0.943142 13.3421 1.77247 16.3653 4.03235 19.7739C4.73258 20.8302 5.09553 21.5098 5.09693 21.7675C5.09906 22.1619 5.44737 22.3177 6.32743 22.3177H7.15338V23.4618C7.15338 24.5529 7.16259 24.6168 7.35171 24.8363L7.55012 25.0665L10.1063 25.0904L12.6625 25.1143V26.1366V27.1589H12.2214C11.6519 27.1589 11.3469 27.3733 11.3469 27.7736C11.3469 28.322 11.6267 28.5539 12.2884 28.5539H12.6625V29.2513V29.9488H12.1834C11.6024 29.9488 11.3469 30.1528 11.3469 30.6168C11.3469 31.0592 11.6131 31.2617 12.195 31.2617H12.6625V31.9493V32.637L12.1569 32.6734C11.0091 32.7563 11.0091 33.952 12.1569 34.0349L12.6625 34.0713V34.7589V35.4465H12.1834C11.6024 35.4465 11.3469 35.6505 11.3469 36.1145C11.3469 36.5569 11.6131 36.7594 12.195 36.7594H12.6625V37.4569V38.1544H12.2884C11.6267 38.1544 11.3469 38.3863 11.3469 38.9346C11.3469 39.402 11.6307 39.5493 12.5314 39.5493H13.2826L14.062 41.1169C15.0888 43.1819 14.7465 42.9956 17.5138 42.9956C20.2811 42.9956 19.9388 43.1819 20.9655 41.1169L21.745 39.5493H22.4962C23.3969 39.5493 23.6807 39.402 23.6807 38.9346C23.6807 38.3863 23.4009 38.1544 22.7392 38.1544H22.3651V37.4569V36.7594H22.8441C23.4252 36.7594 23.6807 36.5554 23.6807 36.0915C23.6807 35.6491 23.4145 35.4465 22.8326 35.4465H22.3651V34.7589V34.0713L22.8707 34.0349C24.0185 33.952 24.0185 32.7563 22.8707 32.6734L22.3651 32.637V31.9493V31.2617H22.8441C23.4247 31.2617 23.6807 31.0576 23.6807 30.5949C23.6807 30.1341 23.444 29.9488 22.8552 29.9488H22.3651V29.2513V28.5539H22.7392C23.4009 28.5539 23.6807 28.322 23.6807 27.7736C23.6807 27.3733 23.3757 27.1589 22.8062 27.1589H22.3651V26.1366V25.1143L24.9213 25.0904L27.4775 25.0665L27.6759 24.8363C27.865 24.6168 27.8742 24.5529 27.8742 23.4618V22.3177H28.7002C29.5802 22.3177 29.9285 22.1619 29.9307 21.7675C29.9321 21.512 30.2936 20.8349 31.0173 19.7329C33.2605 16.3168 34 13.6821 34 9.10672V6.52197L33.7685 5.86552C31.9896 0.822145 23.2361 -0.677255 18.0055 3.16541L17.5138 3.52661L17.0221 3.16541C14.7689 1.5101 11.3164 0.696354 8.29311 1.10803ZM11.8527 2.53891C13.3364 2.79443 14.7636 3.33854 15.931 4.09353C16.5693 4.50644 16.5705 4.48937 15.8487 5.18471C14.209 6.76444 12.4057 7.86792 11.4535 7.87416C10.7219 7.879 10.3683 8.49327 10.8058 8.99955C11.6029 9.9221 14.3315 8.55924 17.1018 5.85494C20.0598 2.9674 22.9667 1.95262 26.697 2.50535C30.7808 3.11051 32.5856 4.84836 32.7003 8.28616C32.8409 12.496 31.9437 15.8623 29.8337 19.0421C29.457 19.6098 29.0592 20.2653 28.9496 20.4986L28.7506 20.9227H17.5138H6.27703L6.07796 20.497C5.96843 20.2629 5.57096 19.6075 5.19461 19.0405C3.13618 15.9396 2.35816 13.2133 2.34813 9.06569C2.34204 6.52008 2.47163 5.985 3.36937 4.85173C4.83084 3.00655 8.60072 1.9788 11.8527 2.53891ZM26.4764 23.0151V23.7126H17.5138H8.55122V23.0151V22.3177H17.5138H26.4764V23.0151ZM20.9673 26.1332V27.1589H17.5138H14.0603V26.1332V25.1075H17.5138H20.9673V26.1332ZM20.9673 29.2513V29.9488H17.5138H14.0603V29.2513V28.5539H17.5138H20.9673V29.2513ZM20.9673 31.9592V32.6567H17.5138H14.0603V31.9592V31.2617H17.5138H20.9673V31.9592ZM20.9673 34.7491V35.4465H17.5138H14.0603V34.7491V34.0516H17.5138H20.9673V34.7491ZM20.95 37.4364L20.9261 38.1133H17.5138H14.1014L14.0776 37.4364L14.0537 36.7594H17.5138H20.9739L20.95 37.4364ZM20.145 39.5916C20.145 39.6149 19.9228 40.0764 19.651 40.6173L19.1571 41.6007H17.5138H15.8705L15.3766 40.6173C15.1048 40.0764 14.8826 39.6149 14.8826 39.5916C14.8826 39.5684 16.0666 39.5493 17.5138 39.5493C18.961 39.5493 20.145 39.5684 20.145 39.5916Z" fill="white" stroke="white" stroke-width="0.5"/>
</svg>
