<svg width="46" height="31" viewBox="0 0 46 31" fill="none" xmlns="http://www.w3.org/2000/svg">
<path fill-rule="evenodd" clip-rule="evenodd" d="M8.52788 1.14413C6.98909 1.48775 5.84443 2.19805 5.21862 3.19757C4.17891 4.85833 4.62921 9.08734 6.10115 11.4859C6.70639 12.4721 6.93627 12.9817 6.93627 13.337V13.6739H5.64578C4.24679 13.6739 4.08471 13.7264 3.96856 14.2173C3.82136 14.8392 1 29.2814 1 29.4127C1 29.4996 1.09507 29.6672 1.21121 29.7851L1.42234 29.9994H23.0014C46.5577 29.9994 44.8701 30.0366 44.9992 29.515C45.0549 29.2901 42.2201 14.5987 42.0219 14.0852C41.8787 13.7138 41.718 13.6739 40.3657 13.6739H39.1126L39.1145 13.3465C39.1166 12.9766 39.3288 12.4539 39.6992 11.9063C41.3015 9.53739 41.9274 5.01224 40.8917 3.28487C39.3591 0.728833 34.9746 0.234614 32.4131 2.32917C31.7766 2.84958 31.9075 2.84993 31.2507 2.32612C29.0216 0.548466 25.4766 0.591593 23.5047 2.4204L23.0244 2.86591L22.5441 2.4204C20.5677 0.587403 17.0326 0.544275 14.7985 2.32586C14.1413 2.85002 14.2722 2.84958 13.6357 2.32917C12.2421 1.18953 10.3208 0.743848 8.52788 1.14413ZM10.9699 2.59169C11.6894 2.76001 12.9186 3.50566 13.1658 3.92375C13.3634 4.25786 11.8396 5.46054 11.2125 5.46551C10.5929 5.47049 10.3468 6.23535 10.8126 6.708C11.5095 7.41524 13.2161 6.48678 14.6541 4.61807C16.4732 2.25401 19.6358 1.74774 21.5607 3.51247C22.461 4.33783 22.5525 6.93097 21.7631 9.24327L21.5321 9.91986H19.3635H17.1948L17.1565 9.38286C17.0884 8.42603 17.1183 8.43572 14.2204 8.43572C11.3085 8.43572 11.2404 8.46313 11.2384 9.63613L11.2379 9.91986H9.08399H6.93016L6.76162 9.52089C6.18296 8.15111 5.94207 5.18911 6.33412 4.26441C6.87759 2.98228 9.14404 2.16452 10.9699 2.59169ZM28.7084 2.63988C29.5502 2.89323 30.8534 3.72261 30.8534 4.00486C30.8534 4.36402 29.3372 5.46743 28.8436 5.46743C28.3455 5.46743 27.9915 6.20671 28.2967 6.60996C28.9438 7.46526 30.7087 6.61232 32.1848 4.73095C34.1213 2.26247 37.0328 1.71753 39.1001 3.43652C40.1012 4.26895 40.1999 7.36225 39.294 9.50517L39.1187 9.91986H36.9648H34.8109L34.8104 9.63613C34.8084 8.46313 34.7403 8.43572 31.8284 8.43572C28.9305 8.43572 28.9604 8.42603 28.8923 9.38286L28.854 9.91986H26.6854H24.5167L24.2857 9.24327C23.7547 7.6878 23.5898 5.0001 23.9758 4.19099C24.5826 2.91916 27.0022 2.12611 28.7084 2.63988ZM15.703 10.6619V11.404H14.219H12.7349V10.6619V9.91986H14.219H15.703V10.6619ZM33.2623 10.6619V11.404H31.8041H30.3458V10.6619V9.91986H31.8041H33.2623V10.6619ZM23.227 10.5763C23.3149 10.7929 23.5999 11.3133 23.8606 11.7327C24.3743 12.5594 24.573 13.031 24.573 13.423V13.6739H23.0244H21.4758V13.423C21.4758 13.031 21.6746 12.5594 22.1883 11.7327C22.4489 11.3133 22.734 10.7929 22.8218 10.5763C22.9096 10.3597 23.0008 10.1824 23.0244 10.1824C23.0481 10.1824 23.1393 10.3597 23.227 10.5763ZM11.2678 11.9496C11.3632 12.9068 11.3046 12.8881 14.206 12.8881C17.1203 12.8881 17.0883 12.8984 17.1565 11.941L17.1948 11.404H18.9052C19.8458 11.404 20.6143 11.4335 20.6127 11.4695C20.6113 11.5054 20.5519 11.613 20.4809 11.7083C19.9841 12.3753 19.9018 13.6892 20.2617 15.2038C20.9525 18.1096 20.8781 20.4789 20.035 22.4259C19.7861 23.0008 19.7066 23.0432 19.6243 22.6442C19.5192 22.1345 18.7143 20.0237 18.2743 19.1038C15.3055 12.8969 11.5651 14.1086 8.96277 22.1204C8.64875 23.087 8.5567 23.0497 8.15467 21.793C7.54254 19.8796 7.55244 17.7298 8.18538 15.1156C8.49054 13.8551 8.46731 12.8463 8.11518 12.07C7.98725 11.7881 7.88263 11.523 7.88263 11.4807C7.88263 11.4386 8.63206 11.404 9.54805 11.404H11.2134L11.2678 11.9496ZM28.8923 11.941C28.9605 12.8984 28.9285 12.8881 31.8428 12.8881C34.7442 12.8881 34.6857 12.9068 34.7811 11.9496L34.8354 11.404H36.5008C37.4168 11.404 38.1662 11.4386 38.1662 11.4807C38.1662 11.523 38.0616 11.7881 37.9337 12.07C37.5678 12.8767 37.5569 13.8406 37.8973 15.2906C38.4982 17.8502 38.4973 19.9079 37.8942 21.793C37.4921 23.0497 37.3997 23.0873 37.0873 22.1204C34.5122 14.1501 30.749 12.9026 27.804 19.043C27.3406 20.0091 26.5334 22.1164 26.4245 22.6442C26.3423 23.0432 26.2627 23.0008 26.0138 22.4259C25.1753 20.4896 25.1001 18.0936 25.7871 15.2038C26.1471 13.6892 26.0647 12.3753 25.5679 11.7083C25.4969 11.613 25.4376 11.5054 25.4361 11.4695C25.4345 11.4335 26.203 11.404 27.1437 11.404H28.854L28.8923 11.941ZM6.55471 15.4417C5.8119 19.0208 6.30616 22.5781 7.77793 24.245C8.75535 25.3521 9.67203 24.9662 10.1896 23.2299C11.3232 19.4277 13.0215 16.6421 14.206 16.6421C15.3644 16.6421 16.8623 19.0129 18.1069 22.816C18.6379 24.4386 18.6473 24.4568 19.0664 24.6737C21.1184 25.736 22.88 20.5605 21.9931 16.0747C21.8982 15.5945 21.8204 15.1918 21.8202 15.1798C21.82 15.1679 22.362 15.158 23.0244 15.158C23.6869 15.158 24.2288 15.1679 24.2286 15.1798C24.2284 15.1918 24.1507 15.5945 24.0557 16.0747C23.1678 20.566 24.928 25.7373 26.9824 24.6737C27.4014 24.4568 27.4165 24.4278 27.9292 22.8463C29.154 19.0688 30.6848 16.6421 31.8428 16.6421C33.0492 16.6421 34.9437 19.8372 35.978 23.6165C36.3402 24.9395 37.4009 25.2304 38.2709 24.245C39.5956 22.7448 40.2215 19.0752 39.6423 16.2056C39.5405 15.7015 39.4571 15.2595 39.457 15.2235C39.4568 15.1875 39.757 15.158 40.1242 15.158H40.7917L42.0751 21.6839C42.781 25.2731 43.3757 28.2785 43.3964 28.3625C43.4324 28.5077 42.4194 28.5153 23.0244 28.5153C3.62942 28.5153 2.61647 28.5077 2.65243 28.3625C2.67317 28.2785 3.26783 25.2731 3.97373 21.6839L5.25716 15.158H5.93536H6.61365L6.55471 15.4417Z" fill="white" stroke="white" stroke-width="0.5"/>
</svg>
