<svg width="45" height="44" viewBox="0 0 45 44" fill="none" xmlns="http://www.w3.org/2000/svg">
<path fill-rule="evenodd" clip-rule="evenodd" d="M20.6108 1.05181C20.1212 1.17417 19.5711 1.56094 19.3145 1.96325L19.0664 2.35236L10.2491 2.3941L1.43173 2.43583L1.22921 2.67003C0.971114 2.96842 0.909843 6.03052 1.15501 6.37865C1.40026 6.72678 1.5735 6.73338 10.473 6.7338L19.0381 6.7343L19.3279 7.17149C19.7063 7.74239 20.289 8.04687 21.1494 8.12316L21.7579 8.17716V9.33374C21.7579 9.96983 21.737 10.4902 21.7114 10.4902C21.6858 10.4902 21.438 10.3371 21.1609 10.1499C17.2975 7.5409 11.2856 9.12767 10.4663 12.9727C9.87859 15.7304 10.7336 19.9458 12.4227 22.6182C13.4108 24.1816 13.5022 24.8029 13.0243 26.7075L12.7352 27.8593L11.2814 29.6705C8.54516 33.0792 8.78177 32.9625 4.4815 33.0241L1.43157 33.0676L1.22912 33.3018L1.02668 33.536V38.0338V42.5316L1.22921 42.7658L1.43182 43H22.5133H43.5949L43.7975 42.7658L44 42.5316V38.0338V33.536L43.7976 33.3018L43.5951 33.0676L40.5871 33.024C36.2912 32.9615 36.4632 33.0513 33.6395 29.4022L32.224 27.5729L31.9739 26.6061C31.5239 24.8669 31.6416 24.1089 32.5923 22.6234C34.2878 19.9739 35.1507 15.7427 34.5604 12.9727C33.7339 9.09395 27.6466 7.5248 23.7998 10.1989C23.5032 10.4051 23.2436 10.5737 23.2227 10.5737C23.2018 10.5737 23.1848 10.0346 23.1848 9.37572V8.17766L23.8353 8.1245C25.0654 8.02375 25.8172 7.41896 26.0402 6.35052C26.2019 5.57613 26.1174 2.67654 25.9225 2.31063C25.3076 1.15639 24.9782 1.02334 22.6812 1.00206C21.6887 0.99288 20.757 1.01525 20.6108 1.05181ZM24.271 2.51679C24.6303 2.70158 24.6956 3.01858 24.6956 4.5793C24.6956 6.75508 24.7232 6.72829 22.4838 6.72553C20.3028 6.72278 20.415 6.83946 20.415 4.57421C20.415 2.77036 20.43 2.68773 20.7927 2.4905C21.0648 2.34251 23.9749 2.36447 24.271 2.51679ZM18.9042 4.52246V5.23192H10.6789H2.45353V4.52246V3.81301H10.6789H18.9042V4.52246ZM18.701 10.5258C19.6011 10.8087 20.8059 11.5489 21.4147 12.1933L21.6116 12.4018L21.2674 12.7905C20.4366 13.7293 19.3962 14.3685 18.4926 14.4955C16.9716 14.7092 17.1482 16.0225 18.6807 15.8937C20.0895 15.7753 21.5417 14.778 23.0377 12.9015C24.4719 11.1025 26.0802 10.2731 28.0948 10.2935C30.4139 10.317 32.2239 11.1973 32.9433 12.6516L33.2147 13.2002L33.2096 15.0795C33.2014 18.0927 32.727 19.7879 31.2467 22.0919C30.241 23.6575 30.0596 24.8936 30.555 26.8077C31.5669 30.7182 31.43 34.5201 30.1901 36.9488C29.6351 38.0358 29.6612 38.0412 29.2706 36.7595C26.6053 28.0167 22.6945 25.0778 19.3112 29.2753C17.9634 30.9475 16.3406 34.4672 15.5496 37.4341C15.4251 37.9013 15.3289 37.8565 14.9413 37.1515C13.6282 34.7625 13.435 30.8934 14.4331 26.9746C14.9835 24.8137 14.8262 23.7561 13.6853 21.945C12.2674 19.6942 11.717 17.558 11.7823 14.559C11.8115 13.2218 11.8165 13.1899 12.0834 12.651C13.0141 10.7713 16.2126 9.74414 18.701 10.5258ZM27.2396 14.6228C26.3911 14.9775 26.7852 16.8546 27.6622 16.6356C28.1013 16.526 28.2207 16.312 28.2207 15.6346C28.2207 14.7373 27.8586 14.3639 27.2396 14.6228ZM24.9016 16.8716C24.604 17.1675 24.5925 18.2981 24.8844 18.5594C25.5483 19.1537 26.1933 18.6032 26.103 17.5195C26.0387 16.7482 25.3818 16.394 24.9016 16.8716ZM29.3538 16.7675C28.7317 17.1223 28.8525 18.6466 29.5127 18.772C29.8118 18.8288 30.2239 18.6267 30.3197 18.376C30.6928 17.4002 30.0682 16.36 29.3538 16.7675ZM27.1488 18.8926C26.7491 19.0526 26.6563 20.2473 27.0112 20.6666C27.5565 21.3111 28.2207 20.8792 28.2207 19.8801C28.2207 19.0084 27.8085 18.6287 27.1488 18.8926ZM19.3256 19.6117C18.4896 20.0323 18.9524 21.9091 19.8241 21.634C20.4615 21.4327 20.585 19.9329 19.9893 19.6266C19.7012 19.4784 19.5953 19.476 19.3256 19.6117ZM17.012 21.8795C16.4768 22.4117 16.8244 23.765 17.4946 23.7586C18.0102 23.7536 18.2328 23.4309 18.2328 22.688C18.2328 21.798 17.5492 21.3452 17.012 21.8795ZM21.2925 21.8795C20.7517 22.4173 21.1047 23.7612 21.7868 23.7612C22.3644 23.7612 22.6871 23.0419 22.4791 22.218C22.3413 21.6721 21.6884 21.4858 21.2925 21.8795ZM19.3561 23.8817C18.7496 24.1426 18.732 25.5031 19.331 25.8374C19.9043 26.1574 20.3311 25.7406 20.3311 24.8608C20.3311 23.9815 19.9691 23.6179 19.3561 23.8817ZM23.0523 28.905C24.6654 29.4516 26.7998 33.329 28.1814 38.2226C28.5937 39.6833 29.8898 39.8949 30.8458 38.6578C32.0287 37.127 32.9514 33.3597 32.7004 31.0853C32.6472 30.6031 32.717 30.4799 32.8894 30.7515C33.1975 31.2367 34.5462 32.8156 34.9353 33.1466C36.1914 34.215 37.1132 34.442 40.2021 34.4435L42.5731 34.4448V38.0338V41.6228H22.5133H2.45353V38.0338V34.4448L4.82461 34.4434C8.70631 34.441 9.56947 34.0838 11.4866 31.6869C12.2962 30.6747 12.4018 30.604 12.3234 31.1271C12.023 33.1281 13.0134 37.1416 14.1818 38.6578C15.1353 39.8952 16.4335 39.683 16.8451 38.2226C18.6015 31.9913 21.0986 28.2431 23.0523 28.905Z" fill="white" stroke="white" stroke-width="0.5"/>
</svg>
