<svg width="30" height="30" viewBox="0 0 30 30" fill="none" xmlns="http://www.w3.org/2000/svg">
<path d="M14.9999 1.7643e-05C9.3923 2.42387e-05 6.58848 2.75366e-05 4.50005 1.20577C3.13184 1.99569 1.99566 3.13187 1.20574 4.50008C0 6.58852 0 9.39233 0 14.9999C0 20.6077 0 23.4115 1.20574 25.5C1.99567 26.8682 3.13183 28.0043 4.50005 28.7943C6.58849 30 9.39236 30 15.0001 30C15.2666 30 15.5332 30 15.7997 30V18.2719H12.6985V14.0494H15.7997V10.4419C15.7997 7.60763 17.6321 5.00531 21.8531 5.00531C23.5622 5.00531 24.826 5.16938 24.826 5.16938L24.7266 9.11252C24.7266 9.11252 23.4377 9.10034 22.0312 9.10034C20.5091 9.10034 20.265 9.80168 20.265 10.966V14.0494H24.8475L24.6478 18.2719H20.265V30C20.9475 30 21.2887 30 21.5769 29.9815C26.093 29.6915 29.6914 26.0931 29.9815 21.5769C30 21.2888 30 20.9475 30 20.2651V15C30 9.39231 30 6.58847 28.7942 4.50001C28.0043 3.13183 26.8682 1.99569 25.5 1.20578C23.4115 7.74934e-06 20.6077 1.10472e-05 14.9999 1.7643e-05Z" fill="white"/>
</svg>
