<svg width="189" height="28" viewBox="0 0 189 28" fill="none" xmlns="http://www.w3.org/2000/svg">
<path d="M92.325 26.915C91.3685 26.915 90.5469 26.731 89.8602 26.3632C89.1735 25.9953 88.6462 25.4762 88.2783 24.8058C87.9186 24.1354 87.7388 23.3506 87.7388 22.4514C87.7388 21.5521 87.9186 20.7714 88.2783 20.1092C88.6462 19.4388 89.1735 18.9197 89.8602 18.5518C90.5469 18.1839 91.3685 18 92.325 18C92.8973 18 93.4491 18.0899 93.9805 18.2698C94.5119 18.4415 94.9411 18.6704 95.2681 18.9565L94.5936 20.7346C94.2339 20.473 93.8742 20.2809 93.5145 20.1582C93.1548 20.0274 92.7869 19.962 92.4109 19.962C91.6506 19.962 91.0783 20.1787 90.6941 20.612C90.3098 21.0371 90.1177 21.6502 90.1177 22.4514C90.1177 23.2607 90.3098 23.882 90.6941 24.3153C91.0783 24.7404 91.6506 24.9529 92.4109 24.9529C92.7869 24.9529 93.1548 24.8916 93.5145 24.769C93.8742 24.6382 94.2339 24.442 94.5936 24.1804L95.2681 25.9585C94.9411 26.2446 94.5119 26.4776 93.9805 26.6575C93.4491 26.8291 92.8973 26.915 92.325 26.915Z" fill="white"/>
<path d="M98.7845 26.7801V19.9743H96.0376V18.1349H103.788V19.9743H101.041V26.7801H98.7845Z" fill="white"/>
<path d="M108.893 26.915C108.019 26.915 107.25 26.731 106.588 26.3632C105.934 25.9871 105.423 25.4639 105.055 24.7935C104.687 24.1232 104.503 23.3424 104.503 22.4514C104.503 21.5521 104.683 20.7714 105.043 20.1092C105.411 19.4388 105.926 18.9197 106.588 18.5518C107.25 18.1839 108.019 18 108.893 18C109.768 18 110.532 18.1839 111.186 18.5518C111.849 18.9197 112.364 19.4388 112.731 20.1092C113.099 20.7714 113.283 21.5521 113.283 22.4514C113.283 23.3424 113.099 24.1232 112.731 24.7935C112.364 25.4639 111.849 25.9871 111.186 26.3632C110.532 26.731 109.768 26.915 108.893 26.915ZM108.893 25.0265C109.531 25.0265 110.03 24.8017 110.389 24.3521C110.757 23.8943 110.941 23.2607 110.941 22.4514C110.941 21.642 110.761 21.0125 110.402 20.5629C110.042 20.1133 109.539 19.8885 108.893 19.8885C108.247 19.8885 107.745 20.1133 107.385 20.5629C107.025 21.0125 106.845 21.642 106.845 22.4514C106.845 23.2607 107.025 23.8943 107.385 24.3521C107.745 24.8017 108.247 25.0265 108.893 25.0265Z" fill="white"/>
<path d="M115.131 26.7801V18.1349H117.007L119.766 23.089L122.525 18.1349H124.352V26.7801H122.316V22.0835L120.342 25.5048H119.116L117.166 22.1325V26.7801H115.131Z" fill="white"/>
<path d="M125.392 26.7801L129.439 18.1349H131.217L135.263 26.7801H133.007L132.259 25.0265H128.396L127.648 26.7801H125.392ZM130.309 20.4893L129.132 23.2975H131.511L130.334 20.4893H130.309Z" fill="white"/>
<path d="M137.235 26.7801V19.9743H134.488V18.1349H142.238V19.9743H139.492V26.7801H137.235Z" fill="white"/>
<path d="M143.892 27.0131L142.752 25.4067C143.202 25.1451 143.565 24.8262 143.843 24.4502C144.121 24.0659 144.326 23.5836 144.456 23.0032C144.587 22.4146 144.653 21.6788 144.653 20.7959V18.1349H151.225V26.7801H148.969V19.9743H146.713V21.3845C146.713 22.8724 146.459 24.0741 145.953 24.9897C145.454 25.9053 144.767 26.5798 143.892 27.0131Z" fill="white"/>
<path d="M157.451 26.915C156.576 26.915 155.807 26.731 155.145 26.3632C154.491 25.9871 153.98 25.4639 153.612 24.7935C153.245 24.1232 153.061 23.3424 153.061 22.4514C153.061 21.5521 153.24 20.7714 153.6 20.1092C153.968 19.4388 154.483 18.9197 155.145 18.5518C155.807 18.1839 156.576 18 157.451 18C158.325 18 159.09 18.1839 159.744 18.5518C160.406 18.9197 160.921 19.4388 161.289 20.1092C161.657 20.7714 161.841 21.5521 161.841 22.4514C161.841 23.3424 161.657 24.1232 161.289 24.7935C160.921 25.4639 160.406 25.9871 159.744 26.3632C159.09 26.731 158.325 26.915 157.451 26.915ZM157.451 25.0265C158.088 25.0265 158.587 24.8017 158.947 24.3521C159.315 23.8943 159.498 23.2607 159.498 22.4514C159.498 21.642 159.319 21.0125 158.959 20.5629C158.599 20.1133 158.096 19.8885 157.451 19.8885C156.805 19.8885 156.302 20.1133 155.942 20.5629C155.583 21.0125 155.403 21.642 155.403 22.4514C155.403 23.2607 155.583 23.8943 155.942 24.3521C156.302 24.8017 156.805 25.0265 157.451 25.0265Z" fill="white"/>
<path d="M163.663 26.7801V18.1349H169.77V19.9743H165.92V26.7801H163.663Z" fill="white"/>
<path d="M171.255 26.7801V18.1349H173.352V23.1381L177.313 18.1349H178.968V26.7801H176.884V21.7646L172.911 26.7801H171.255Z" fill="white"/>
<path d="M180.499 26.7801L181.836 24.3275C182.105 23.8452 182.457 23.5346 182.89 23.3956C182.261 23.2321 181.778 22.9296 181.443 22.4881C181.108 22.0467 180.94 21.499 180.94 20.8449C180.94 19.9947 181.206 19.3325 181.738 18.8584C182.277 18.3761 183.033 18.1349 184.006 18.1349H188.175V26.7801H185.919V23.555H185.367C185.171 23.555 184.995 23.5918 184.84 23.6654C184.693 23.7389 184.57 23.8616 184.472 24.0332L182.964 26.7801H180.499ZM184.423 21.9608H185.919V19.8639H184.423C183.532 19.8639 183.086 20.2114 183.086 20.9063C183.086 21.6093 183.532 21.9608 184.423 21.9608Z" fill="white"/>
<path fill-rule="evenodd" clip-rule="evenodd" d="M6.21756 27.0131V23.5369H2.40849V27.0131H0V18H2.40849V21.5604H6.21756V18H8.61296V27.0131H6.21756ZM16.9397 27.0131H10.4211V18H16.9397V19.8587H12.7248V21.6127H16.6386V23.4715H12.7248V25.3694H16.9397V27.0131ZM20.7914 27.0131H18.6185V18H20.6212L23.5664 23.2882L26.5116 18H28.4619V27.0131H26.289V22.2149L24.1816 25.8669H22.8727L20.7914 22.2672V27.0131ZM36.8103 27.0131H30.2917V18H36.8103V19.8587H32.5955V21.6127H36.5093V23.4715H32.5955V25.3694H36.8103V27.0131ZM48.2933 27.0131H38.463V18H40.8715V25.2647H44.5758V18H46.9843V25.2647H48.2933V27.0131ZM51.9572 27.0131H49.5488V18H51.9572V21.6913H52.8735L55.0726 18H57.6774L55.0333 22.1756C55.6267 22.5072 56.1154 23.0657 56.4993 23.8511L57.9565 26.8586L62.103 18H64.001L68.2199 27.0131H65.8204L65.1136 25.3564H60.9904L60.2837 27.0131H55.446L54.3657 24.6364C54.1999 24.2786 53.9949 24.0256 53.7505 23.8772C53.5062 23.7289 53.192 23.6547 52.8081 23.6547H51.9572V27.0131ZM71.1835 27.0131H68.5516L69.8612 24.6102C70.1491 24.0954 70.5244 23.7638 70.9869 23.6154C70.3149 23.4409 69.8001 23.118 69.4423 22.6468C69.0845 22.1756 68.9056 21.5909 68.9056 20.8928C68.9056 19.9853 69.1892 19.2784 69.7564 18.7723C70.3324 18.2574 71.1396 18 72.178 18H76.6285V27.0131H74.22V23.7856H73.631C73.4215 23.7856 73.2339 23.8249 73.0681 23.9034C72.911 23.9819 72.7802 24.1128 72.6754 24.2961L71.1835 27.0131ZM63.0324 20.5132L61.7758 23.5107H64.3152L63.0586 20.5132H63.0324ZM74.22 22.084H72.6231C71.6719 22.084 71.1963 21.7087 71.1963 20.9583C71.1963 20.2165 71.6719 19.8456 72.6231 19.8456H74.22V22.084Z" fill="white"/>
<path fill-rule="evenodd" clip-rule="evenodd" d="M52.2157 3.7554V15.1673H54.4565L59.8342 8.54676V15.1673H62.6558V3.7554H60.4151L55.054 10.3597V3.7554H52.2157ZM55.6017 2.54137C56.0886 2.75719 56.6916 2.86511 57.4109 2.86511C58.3514 2.86511 59.1149 2.64388 59.7014 2.20144C60.2989 1.7482 60.6807 1.16007 60.8466 0.437051L59.5022 0.0161868C59.3473 0.447842 59.1039 0.78777 58.7719 1.03597C58.451 1.27338 58.0084 1.39209 57.4441 1.39209C56.8908 1.39209 56.4482 1.28417 56.1162 1.06835C55.7954 0.852518 55.5353 0.496403 55.3362 0L53.9419 0.437051C54.0194 0.879497 54.1909 1.28417 54.4565 1.65108C54.7331 2.01799 55.1148 2.31475 55.6017 2.54137ZM6.20761 15.3453C4.91297 15.3453 3.80091 15.1025 2.87143 14.6169C1.94195 14.1313 1.22824 13.446 0.730307 12.5612C0.243436 11.6763 0 10.6403 0 9.45324C0 8.26619 0.243436 7.23561 0.730307 6.36151C1.22824 5.47662 1.94195 4.79137 2.87143 4.30576C3.80091 3.82014 4.91297 3.57734 6.20761 3.57734C6.98217 3.57734 7.72908 3.69604 8.44832 3.93345C9.16756 4.16007 9.74849 4.46223 10.1911 4.83993L9.27821 7.18705C8.79134 6.84173 8.30447 6.58813 7.8176 6.42626C7.33073 6.2536 6.83279 6.16727 6.32379 6.16727C5.29472 6.16727 4.52015 6.45324 4.00009 7.02518C3.48002 7.58633 3.21999 8.39568 3.21999 9.45324C3.21999 10.5216 3.48002 11.3417 4.00009 11.9137C4.52015 12.4748 5.29472 12.7554 6.32379 12.7554C6.83279 12.7554 7.33073 12.6745 7.8176 12.5126C8.30447 12.3399 8.79134 12.0809 9.27821 11.7356L10.1911 14.0827C9.74849 14.4604 9.16756 14.768 8.44832 15.0054C7.72908 15.232 6.98217 15.3453 6.20761 15.3453ZM10.0883 15.1673L15.5656 3.7554H17.9723L23.4496 15.1673H20.3955L19.3831 12.8525H14.1547L13.1423 15.1673H10.0883ZM16.744 6.86331L15.1506 10.5701H18.3706L16.7772 6.86331H16.744ZM24.1914 3.7554V15.1673H26.9467V9.03237L29.5857 13.4838H31.2455L33.9178 8.96763V15.1673H36.673V3.7554H34.1999L30.4654 10.295L26.7309 3.7554H24.1914ZM44.4705 15.3453C43.2865 15.3453 42.2464 15.1025 41.3501 14.6169C40.4649 14.1205 39.7733 13.4299 39.2754 12.545C38.7774 11.6601 38.5285 10.6295 38.5285 9.45324C38.5285 8.26619 38.7719 7.23561 39.2588 6.36151C39.7567 5.47662 40.4538 4.79137 41.3501 4.30576C42.2464 3.82014 43.2865 3.57734 44.4705 3.57734C45.6545 3.57734 46.6891 3.82014 47.5743 4.30576C48.4706 4.79137 49.1677 5.47662 49.6656 6.36151C50.1636 7.23561 50.4125 8.26619 50.4125 9.45324C50.4125 10.6295 50.1636 11.6601 49.6656 12.545C49.1677 13.4299 48.4706 14.1205 47.5743 14.6169C46.6891 15.1025 45.6545 15.3453 44.4705 15.3453ZM44.4705 12.8525C45.3336 12.8525 46.0086 12.5558 46.4954 11.9622C46.9934 11.3579 47.2424 10.5216 47.2424 9.45324C47.2424 8.38489 46.9989 7.55396 46.512 6.96043C46.0252 6.36691 45.3447 6.07014 44.4705 6.07014C43.5964 6.07014 42.9158 6.36691 42.429 6.96043C41.9421 7.55396 41.6987 8.38489 41.6987 9.45324C41.6987 10.5216 41.9421 11.3579 42.429 11.9622C42.9158 12.5558 43.5964 12.8525 44.4705 12.8525ZM65.4411 15.4748L63.8975 13.3543C64.5061 13.009 64.9985 12.5881 65.3748 12.0917C65.751 11.5845 66.0276 10.9478 66.2046 10.1817C66.3817 9.40468 66.4702 8.43345 66.4702 7.26799V3.7554H75.3667V15.1673H72.3127V6.18345H69.2587V8.04496C69.2587 10.009 68.9156 11.5953 68.2296 12.804C67.5546 14.0126 66.6251 14.9029 65.4411 15.4748ZM77.4854 3.7554V15.1673H85.7511V12.8687H80.4066V10.5216H85.3694V8.22302H80.4066V6.05396H85.7511V3.7554H77.4854ZM87.6807 15.1673V3.7554H90.7348V8.15827H95.5647V3.7554H98.6021V15.1673H95.5647V10.6025H90.7348V15.1673H87.6807ZM100.729 3.7554V15.1673H103.783V10.7482H104.862C105.349 10.7482 105.747 10.8399 106.057 11.0234C106.367 11.2068 106.627 11.5198 106.837 11.9622L108.331 15.1673H111.617L109.542 10.991C109.055 10.0198 108.436 9.32914 107.683 8.91907L111.036 3.7554H107.733L104.945 8.32014H103.783V3.7554H100.729ZM117.897 15.3453C116.713 15.3453 115.673 15.1025 114.776 14.6169C113.891 14.1205 113.199 13.4299 112.702 12.545C112.204 11.6601 111.955 10.6295 111.955 9.45324C111.955 8.26619 112.198 7.23561 112.685 6.36151C113.183 5.47662 113.88 4.79137 114.776 4.30576C115.673 3.82014 116.713 3.57734 117.897 3.57734C119.081 3.57734 120.115 3.82014 121 4.30576C121.897 4.79137 122.594 5.47662 123.092 6.36151C123.59 7.23561 123.839 8.26619 123.839 9.45324C123.839 10.6295 123.59 11.6601 123.092 12.545C122.594 13.4299 121.897 14.1205 121 14.6169C120.115 15.1025 119.081 15.3453 117.897 15.3453ZM117.897 12.8525C118.76 12.8525 119.435 12.5558 119.922 11.9622C120.42 11.3579 120.669 10.5216 120.669 9.45324C120.669 8.38489 120.425 7.55396 119.938 6.96043C119.451 6.36691 118.771 6.07014 117.897 6.07014C117.022 6.07014 116.342 6.36691 115.855 6.96043C115.368 7.55396 115.125 8.38489 115.125 9.45324C115.125 10.5216 115.368 11.3579 115.855 11.9622C116.342 12.5558 117.022 12.8525 117.897 12.8525ZM144.282 3.7554V15.1673H152.548V12.8687H147.203V10.5216H152.166V8.22302H147.203V6.05396H152.548V3.7554H144.282ZM154.477 15.1673V3.7554H157.531V8.15827H162.361V3.7554H165.399V15.1673H162.361V10.6025H157.531V15.1673H154.477ZM170.281 6.18345V15.1673H173.335V6.18345H177.053V3.7554H166.563V6.18345H170.281ZM178.207 15.1673V3.7554H183.834C185.162 3.7554 186.185 4.08993 186.905 4.75899C187.635 5.41727 188 6.32914 188 7.4946C188 8.66007 187.635 9.57734 186.905 10.2464C186.185 10.9047 185.162 11.2338 183.834 11.2338H181.261V15.1673H178.207ZM181.261 8.95144H183.303C184.498 8.95144 185.095 8.46583 185.095 7.4946C185.095 6.52338 184.498 6.03777 183.303 6.03777H181.261V8.95144ZM130.391 15.1673H140.217H142.856V12.7392H141.196V3.7554H138.142V12.7392H133.445V3.7554H130.391V15.1673Z" fill="#828B92"/>
</svg>
